<svg width="75" height="76" viewBox="0 0 75 76" fill="none" xmlns="http://www.w3.org/2000/svg">
<path d="M37.5 18.792C36.5054 18.792 35.5516 19.188 34.8484 19.8928C34.1451 20.5977 33.75 21.5536 33.75 22.5504V37.584C33.75 38.5808 34.1451 39.5368 34.8484 40.2416C35.5516 40.9464 36.5054 41.3424 37.5 41.3424C38.4946 41.3424 39.4484 40.9464 40.1516 40.2416C40.8549 39.5368 41.25 38.5808 41.25 37.584V22.5504C41.25 21.5536 40.8549 20.5977 40.1516 19.8928C39.4484 19.188 38.4946 18.792 37.5 18.792ZM37.5 48.8592C36.7583 48.8592 36.0333 49.0796 35.4166 49.4926C34.7999 49.9056 34.3193 50.4926 34.0354 51.1793C33.7516 51.8661 33.6774 52.6218 33.8221 53.3508C33.9668 54.0799 34.3239 54.7496 34.8484 55.2752C35.3728 55.8008 36.041 56.1588 36.7684 56.3038C37.4958 56.4488 38.2498 56.3744 38.9351 56.0899C39.6203 55.8055 40.206 55.3237 40.618 54.7057C41.0301 54.0876 41.25 53.361 41.25 52.6176C41.25 51.6208 40.8549 50.6649 40.1516 49.96C39.4484 49.2552 38.4946 48.8592 37.5 48.8592ZM73.9125 20.8967L54.15 1.08994C53.4314 0.40315 52.4804 0.013844 51.4875 0H23.5125C22.5196 0.013844 21.5686 0.40315 20.85 1.08994L1.0875 20.8967C0.402248 21.6169 0.0138131 22.5701 0 23.5652V51.6028C0.0138131 52.5979 0.402248 53.5511 1.0875 54.2713L20.85 74.0781C21.5686 74.7649 22.5196 75.1542 23.5125 75.168H51.4875C52.4804 75.1542 53.4314 74.7649 54.15 74.0781L73.9125 54.2713C74.5977 53.5511 74.9862 52.5979 75 51.6028V23.5652C74.9862 22.5701 74.5977 21.6169 73.9125 20.8967ZM67.5 50.0243L49.9125 67.6512H25.0875L7.5 50.0243V25.1437L25.0875 7.5168H49.9125L67.5 25.1437V50.0243Z" fill="white"/>
</svg>
