<svg width="24" height="22" viewBox="0 0 24 22" fill="none" xmlns="http://www.w3.org/2000/svg">
<path d="M0 2.55556C0 1.8148 0.264272 1.20369 0.792793 0.722222C1.32131 0.240733 2.00842 0 2.85405 0C3.68461 0 4.35658 0.237022 4.87001 0.711111C5.39853 1.2 5.66281 1.83702 5.66281 2.62222C5.66281 3.33333 5.4061 3.92591 4.89266 4.4C4.36414 4.88889 3.6695 5.13333 2.80875 5.13333H2.7861C1.95555 5.13333 1.28358 4.88889 0.770142 4.4C0.256706 3.91111 0 3.29629 0 2.55556ZM0.294466 22V7.15556H5.32304V22H0.294466ZM8.10914 22H13.1377V13.7111C13.1377 13.1926 13.1981 12.7926 13.3189 12.5111C13.5303 12.0074 13.8512 11.5815 14.2816 11.2333C14.712 10.8852 15.2518 10.7111 15.9012 10.7111C17.5925 10.7111 18.4381 11.8296 18.4381 14.0667V22H23.4667V13.4889C23.4667 11.2963 22.9381 9.63333 21.8811 8.5C20.824 7.36667 19.4272 6.8 17.6906 6.8C15.7426 6.8 14.225 7.62222 13.1377 9.26667V9.31111H13.1151L13.1377 9.26667V7.15556H8.10914C8.13933 7.62962 8.15444 9.10369 8.15444 11.5778C8.15444 14.0518 8.13933 17.5259 8.10914 22Z" fill="white"/>
</svg>
