<svg width="23" height="22" viewBox="0 0 23 22" fill="none" xmlns="http://www.w3.org/2000/svg">
<path d="M22.2319 0.495222C21.9342 0.247583 21.5749 0.0852833 21.1924 0.0255962C20.8098 -0.0340909 20.4182 0.0110676 20.0592 0.156266L1.32322 7.7207C0.922544 7.88555 0.581472 8.16836 0.345281 8.53159C0.109089 8.89482 -0.0110534 9.32129 0.000799757 9.7544C0.0126529 10.1875 0.155941 10.6068 0.411646 10.9565C0.667351 11.3063 1.02338 11.57 1.43248 11.7127L5.22235 13.0308L7.33475 20.0163C7.36345 20.1097 7.40511 20.1985 7.45851 20.2802C7.46661 20.2928 7.47804 20.3021 7.48666 20.3143C7.54834 20.4004 7.6229 20.4764 7.7077 20.5399C7.73182 20.5582 7.75492 20.5755 7.7807 20.5918C7.87995 20.6576 7.98986 20.7058 8.10556 20.7341L8.11794 20.7351L8.12495 20.7381C8.19451 20.7523 8.26531 20.7595 8.3363 20.7596C8.34312 20.7596 8.34919 20.7563 8.35595 20.7562C8.46307 20.7543 8.56926 20.7359 8.67074 20.7015C8.69434 20.6935 8.71457 20.68 8.73748 20.6703C8.81315 20.639 8.88484 20.5987 8.95106 20.5505C9.00409 20.5058 9.05714 20.4612 9.1102 20.4165L11.9353 17.2974L16.1488 20.5615C16.5198 20.8503 16.9764 21.0073 17.4465 21.0077C17.9391 21.0071 18.4165 20.8371 18.7987 20.5263C19.1809 20.2155 19.4446 19.7827 19.5457 19.3006L22.9567 2.55556C23.034 2.17869 23.0074 1.78788 22.8797 1.42497C22.7521 1.06205 22.5281 0.740675 22.2319 0.495222ZM8.75085 13.3636C8.60589 13.508 8.50679 13.692 8.466 13.8925L8.14241 15.4649L7.32269 12.7539L11.5728 10.5407L8.75085 13.3636ZM17.4302 18.9085L12.4509 15.0513C12.2426 14.8903 11.9812 14.8137 11.719 14.8368C11.4567 14.8599 11.2128 14.981 11.0358 15.1758L10.131 16.1745L10.4508 14.6204L17.8559 7.21528C18.0327 7.03876 18.1404 6.80478 18.1595 6.55571C18.1786 6.30664 18.1079 6.05896 17.9602 5.85753C17.8124 5.6561 17.5974 5.51424 17.3541 5.45765C17.1108 5.40106 16.8553 5.43348 16.6338 5.54904L6.0062 11.0824L2.11245 9.65749L20.9086 2.13796L17.4302 18.9085Z" fill="white"/>
</svg>
