<svg width="40" height="40" viewBox="0 0 40 40" fill="none" xmlns="http://www.w3.org/2000/svg">
<path d="M34 24H38C38.5304 24 39.0391 23.7893 39.4142 23.4142C39.7893 23.0391 40 22.5304 40 22C40 21.4696 39.7893 20.9609 39.4142 20.5858C39.0391 20.2107 38.5304 20 38 20H34V18C33.9823 17.0786 33.841 16.1638 33.58 15.28C35.4599 14.5592 37.0785 13.2878 38.224 11.6321C39.3695 9.9763 39.9885 8.01333 40 6C40 5.46957 39.7893 4.96086 39.4142 4.58579C39.0391 4.21071 38.5304 4 38 4C37.4696 4 36.9609 4.21071 36.5858 4.58579C36.2107 4.96086 36 5.46957 36 6C35.9982 7.28969 35.581 8.54449 34.81 9.57839C34.0391 10.6123 32.9556 11.3703 31.72 11.74C30.7336 10.4759 29.4578 9.4676 28 8.8C28.0207 8.53374 28.0207 8.26626 28 8C28 5.87827 27.1571 3.84344 25.6569 2.34315C24.1566 0.842855 22.1217 0 20 0C17.8783 0 15.8434 0.842855 14.3431 2.34315C12.8429 3.84344 12 5.87827 12 8C11.9793 8.26626 11.9793 8.53374 12 8.8C10.5132 9.45663 9.20892 10.4658 8.2 11.74C6.97936 11.3561 5.9134 10.5921 5.1578 9.55942C4.40219 8.52676 3.99651 7.27958 4 6C4 5.46957 3.78929 4.96086 3.41421 4.58579C3.03914 4.21071 2.53043 4 2 4C1.46957 4 0.960859 4.21071 0.585786 4.58579C0.210714 4.96086 0 5.46957 0 6C0.0115323 8.01333 0.63053 9.9763 1.776 11.6321C2.92147 13.2878 4.54006 14.5592 6.42 15.28C6.15895 16.1638 6.01769 17.0786 6 18V20H2C1.46957 20 0.960859 20.2107 0.585786 20.5858C0.210714 20.9609 0 21.4696 0 22C0 22.5304 0.210714 23.0391 0.585786 23.4142C0.960859 23.7893 1.46957 24 2 24H6V26C6.00173 26.927 6.09552 27.8515 6.28 28.76C4.43256 29.5004 2.84807 30.7752 1.72931 32.4212C0.610557 34.0673 0.00843141 36.0098 0 38C0 38.5304 0.210714 39.0391 0.585786 39.4142C0.960859 39.7893 1.46957 40 2 40C2.53043 40 3.03914 39.7893 3.41421 39.4142C3.78929 39.0391 4 38.5304 4 38C4.00541 36.8336 4.3507 35.694 4.99362 34.7207C5.63655 33.7474 6.54923 32.9827 7.62 32.52C8.80941 34.7725 10.5908 36.6577 12.7723 37.9728C14.9538 39.2878 17.4528 39.9828 20 39.9828C22.5472 39.9828 25.0462 39.2878 27.2277 37.9728C29.4092 36.6577 31.1906 34.7725 32.38 32.52C33.4508 32.9827 34.3634 33.7474 35.0064 34.7207C35.6493 35.694 35.9946 36.8336 36 38C36 38.5304 36.2107 39.0391 36.5858 39.4142C36.9609 39.7893 37.4696 40 38 40C38.5304 40 39.0391 39.7893 39.4142 39.4142C39.7893 39.0391 40 38.5304 40 38C39.9916 36.0098 39.3894 34.0673 38.2707 32.4212C37.1519 30.7752 35.5674 29.5004 33.72 28.76C33.9045 27.8515 33.9983 26.927 34 26V24ZM18 35.8C15.7413 35.3389 13.7112 34.1116 12.2534 32.3258C10.7956 30.54 9.99953 28.3053 10 26V18C10 16.4087 10.6321 14.8826 11.7574 13.7574C12.8826 12.6321 14.4087 12 16 12H18V35.8ZM16 8C16 6.93913 16.4214 5.92172 17.1716 5.17157C17.9217 4.42143 18.9391 4 20 4C21.0609 4 22.0783 4.42143 22.8284 5.17157C23.5786 5.92172 24 6.93913 24 8H16ZM30 26C30.0005 28.3053 29.2044 30.54 27.7466 32.3258C26.2888 34.1116 24.2587 35.3389 22 35.8V12H24C25.5913 12 27.1174 12.6321 28.2426 13.7574C29.3679 14.8826 30 16.4087 30 18V26Z" fill="#3DFE90"/>
</svg>
