<svg width="20" height="41" viewBox="0 0 20 41" fill="none" xmlns="http://www.w3.org/2000/svg">
<path d="M7.5 19.6824V37.5323C7.5 38.1954 7.76339 38.8312 8.23223 39.3001C8.70107 39.7689 9.33695 40.0323 9.99999 40.0323C10.663 40.0323 11.2989 39.7689 11.7677 39.3001C12.2366 38.8312 12.5 38.1954 12.5 37.5323V19.6824C14.8566 19.0739 16.9104 17.6268 18.2765 15.6124C19.6425 13.5979 20.2269 11.1545 19.9202 8.73992C19.6136 6.3254 18.4368 4.10561 16.6105 2.49664C14.7843 0.887678 12.4339 0 9.99999 0C7.56606 0 5.21569 0.887678 3.38943 2.49664C1.56317 4.10561 0.386412 6.3254 0.0797272 8.73992C-0.226958 11.1545 0.357487 13.5979 1.72351 15.6124C3.08954 17.6268 5.14336 19.0739 7.5 19.6824ZM9.99999 5.03244C10.9889 5.03244 11.9556 5.32568 12.7778 5.87509C13.6001 6.42449 14.2409 7.20538 14.6194 8.11901C14.9978 9.03264 15.0968 10.038 14.9039 11.0079C14.711 11.9778 14.2348 12.8687 13.5355 13.5679C12.8362 14.2672 11.9453 14.7434 10.9754 14.9363C10.0055 15.1293 9.0002 15.0302 8.08658 14.6518C7.17295 14.2734 6.39206 13.6325 5.84266 12.8103C5.29325 11.988 5.00001 11.0213 5.00001 10.0324C5.00001 8.70634 5.52679 7.43458 6.46447 6.4969C7.40215 5.55922 8.67391 5.03244 9.99999 5.03244Z" fill="#3DFE90"/>
</svg>
