<svg width="157" height="40" viewBox="0 0 157 40" fill="none" xmlns="http://www.w3.org/2000/svg">
<path d="M56.6654 29.9914C55.0189 29.0547 53.655 27.6935 52.7161 26.0505C51.7753 24.3254 51.2825 22.3926 51.2825 20.4286C51.2825 18.4645 51.7753 16.5318 52.7161 14.8067C53.6565 13.173 55.0207 11.8224 56.6654 10.8973C58.1589 10.0832 59.8118 9.60269 61.5096 9.48906C63.2076 9.37542 64.91 9.63134 66.499 10.2391C67.7519 10.7283 68.8885 11.4734 69.8361 12.4263C70.6856 13.279 71.3498 14.2972 71.787 15.4176C71.815 15.492 71.8134 15.5743 71.7826 15.6476C71.7518 15.7208 71.6939 15.7796 71.6211 15.8117L67.431 17.6167C67.0386 16.5902 66.3518 15.702 65.4564 15.0629C64.5357 14.4081 63.4274 14.068 62.297 14.0934C61.2504 14.0754 60.2207 14.3587 59.3311 14.9092C58.4586 15.456 57.7536 16.2318 57.2933 17.1516C56.8071 18.1774 56.5551 19.2979 56.5551 20.4325C56.5551 21.5672 56.8071 22.6877 57.2933 23.7135C57.7495 24.6423 58.4549 25.4268 59.3311 25.9795C60.2219 26.527 61.2511 26.8088 62.297 26.7914C63.4245 26.8178 64.5311 26.4851 65.4564 25.8416C66.3685 25.1943 67.0581 24.2818 67.431 23.2287L71.629 25.1243C71.7011 25.1572 71.7581 25.2162 71.7881 25.2894C71.8182 25.3626 71.8192 25.4445 71.791 25.5185C71.3617 26.6135 70.7095 27.6079 69.8756 28.4387C68.9259 29.394 67.7902 30.1452 66.5385 30.6457C64.9454 31.2666 63.2348 31.5296 61.5284 31.4158C59.8219 31.3021 58.1615 30.8144 56.6654 29.9875V29.9914Z" fill="#0A4FD7"/>
<path d="M80.0366 29.9757C78.4303 29.0157 77.1169 27.6368 76.2375 25.9874C75.3212 24.2723 74.8539 22.3542 74.8789 20.4109C74.8414 18.4466 75.3149 16.5062 76.2532 14.7791C77.1402 13.1727 78.439 11.8302 80.0168 10.8893C81.6284 9.92851 83.4751 9.43198 85.3523 9.45479C87.3099 9.39319 89.2453 9.88356 90.9364 10.8696C92.4239 11.769 93.6323 13.0623 94.4276 14.6057C95.241 16.1987 95.6543 17.965 95.6321 19.7527C95.6324 20.1344 95.6127 20.516 95.5729 20.8956C95.5417 21.2326 95.47 21.5648 95.3596 21.8847H80.1511C80.2481 23.0571 80.7096 24.17 81.471 25.0679C82.2325 25.9659 83.256 26.6041 84.3984 26.8936C85.5409 27.1831 86.7455 27.1093 87.844 26.6825C88.9424 26.2559 89.88 25.4975 90.5257 24.5134C90.5646 24.4478 90.6271 24.3994 90.7005 24.3782C90.7738 24.3569 90.8526 24.3644 90.9207 24.3991L94.7909 26.2948C94.0853 27.8586 92.8947 29.1545 91.3945 29.9914C89.6839 30.9863 87.7307 31.4897 85.7511 31.4457C83.7468 31.4915 81.769 30.9826 80.0366 29.9757ZM82.0744 14.7791C81.1133 15.6132 80.4749 16.7564 80.2695 18.0108H90.2018C90.137 16.8054 89.601 15.6733 88.709 14.858C87.7903 14.0332 86.5873 13.5954 85.3523 13.6362C84.1574 13.611 82.9935 14.0168 82.0744 14.7791Z" fill="#0A4FD7"/>
<path d="M111.283 10.1288L109.13 14.9407C109.107 14.9912 109.07 15.034 109.023 15.0639C108.976 15.094 108.922 15.11 108.866 15.1101H104.869C104.788 15.1112 104.71 15.144 104.653 15.2016C104.597 15.2591 104.565 15.3367 104.565 15.4176V30.9885H99.4745V9.92379H104.245C104.327 9.92379 104.405 9.95617 104.463 10.0139C104.52 10.0715 104.553 10.1497 104.553 10.2312V13.8097L106.315 9.86862C106.337 9.81711 106.374 9.77324 106.421 9.74244C106.468 9.71162 106.523 9.69521 106.579 9.69522H111.015C111.066 9.69406 111.117 9.70637 111.162 9.73095C111.208 9.75552 111.246 9.79149 111.273 9.83529C111.3 9.8791 111.315 9.92922 111.317 9.98069C111.319 10.0322 111.307 10.0832 111.283 10.1288Z" fill="#0A4FD7"/>
<path d="M116.603 2.14025H121.021C121.072 2.14057 121.121 2.15338 121.166 2.17754C121.21 2.2017 121.247 2.23644 121.275 2.27866C121.302 2.32087 121.319 2.36921 121.323 2.41934C121.327 2.46948 121.318 2.51984 121.298 2.56588L119.142 7.36998C119.118 7.42287 119.079 7.4677 119.03 7.49913C118.981 7.53058 118.924 7.54729 118.866 7.54733H113.98L116.326 2.30577C116.352 2.2551 116.392 2.21271 116.441 2.18344C116.49 2.15418 116.546 2.13921 116.603 2.14025Z" fill="#0A4FD7"/>
<path d="M114.288 9.91987H119.063V30.9807H113.98V10.2272C113.98 10.1458 114.013 10.0676 114.071 10.0099C114.128 9.95225 114.207 9.91987 114.288 9.91987Z" fill="#0A4FD7"/>
<path d="M157 9.9159L149.618 28.5569C149.618 28.5569 147.885 32.7935 147.107 34.4685C146.504 35.7923 145.833 37.0841 145.097 38.3385H139.623V38.2321C140.231 37.239 140.898 36.1 141.598 34.7955C142.297 33.4911 142.928 32.2181 143.473 30.9964L137.005 14.6609C136.982 14.6052 136.943 14.5574 136.893 14.5238C136.843 14.4901 136.785 14.4719 136.724 14.4717H131.278V30.9767H126.195V14.7555C126.194 14.6753 126.162 14.5987 126.105 14.542C126.048 14.4853 125.972 14.453 125.891 14.452H122.475V10.2193C122.475 10.1388 122.507 10.0616 122.564 10.0048C122.621 9.94787 122.699 9.9159 122.779 9.9159H126.195V9.22623C126.195 6.81826 126.923 4.96598 128.368 3.64968C129.813 2.33338 131.76 1.67917 134.185 1.67917C134.768 1.67492 135.352 1.72372 135.927 1.82498C135.997 1.83884 136.06 1.87685 136.104 1.93233C136.149 1.98781 136.173 2.05723 136.172 2.12845V6.24287C135.736 6.17138 135.295 6.13447 134.852 6.13252C133.92 6.08017 132.997 6.34407 132.235 6.88131C131.59 7.38971 131.274 8.16609 131.274 9.24592V9.9356H140.381C140.442 9.9384 140.501 9.95941 140.551 9.99592C140.6 10.0325 140.637 10.0827 140.657 10.1405L146.052 24.4504L151.471 9.9159H157Z" fill="#0A4FD7"/>
<path d="M30.0082 36.7188C30.0361 36.7851 30.0395 36.8591 30.0178 36.9277C29.9961 36.9963 29.9507 37.0549 29.8897 37.0932C29.5817 37.2864 29.2617 37.4873 28.9379 37.6331C28.8495 37.6861 28.7571 37.7323 28.6615 37.7711C28.3328 37.9567 27.994 38.1238 27.6466 38.2716C27.639 38.2747 27.6305 38.2747 27.6229 38.2716C27.3543 38.3977 27.0739 38.5081 26.8054 38.6105C26.442 38.7445 26.0748 38.8824 25.7074 39.0046C25.1664 39.178 24.6057 39.3317 24.0567 39.4578L23.2274 39.6352C18.6709 40.5097 13.9513 39.7239 9.92637 37.4203C9.40112 37.1248 8.88772 36.8015 8.37827 36.4508C8.16106 36.2971 7.93991 36.1434 7.71875 35.9779C7.49759 35.8124 7.28828 35.6429 7.07897 35.4735C6.64456 35.1148 6.22199 34.7444 5.81917 34.3423C5.59011 34.1178 5.37291 33.8892 5.1557 33.6605C4.93849 33.432 4.71733 33.1798 4.52383 32.9355C4.33031 32.6911 4.1289 32.4349 3.92354 32.1788C3.71818 31.9226 3.55232 31.6665 3.3667 31.3905C3.18109 31.1147 2.97178 30.7836 2.76642 30.4645C1.4464 28.2226 0.56962 25.7489 0.183625 23.1775L0.15993 23.0199C0.128337 22.8031 0.112539 22.5864 0.0809457 22.3656C-0.309397 18.0724 0.719267 13.7697 3.00981 10.1147C5.30034 6.45972 8.72683 3.65346 12.7659 2.12455C13.0166 2.02238 13.2723 1.93293 13.532 1.85656C13.5643 1.83598 13.6007 1.82254 13.6386 1.81715C14.0771 1.67921 14.5154 1.55704 14.9459 1.44669C15.3763 1.33635 15.7001 1.28118 16.0871 1.21418C16.1591 1.20123 16.2332 1.21386 16.2967 1.24986C16.3602 1.28588 16.4091 1.34298 16.4347 1.41123L18.9385 7.94149C18.9529 7.97923 18.9597 8.01947 18.9584 8.05986C18.957 8.10024 18.9476 8.13995 18.9307 8.17667C18.9138 8.21337 18.8897 8.24635 18.8599 8.27363C18.83 8.30093 18.795 8.32199 18.7569 8.33559L12.0985 10.917C12.0221 10.9454 11.9601 11.0027 11.926 11.0765C11.892 11.1504 11.8887 11.2347 11.9168 11.3111L14.4838 17.9556C14.5138 18.0299 14.5132 18.113 14.4822 18.1868C14.4511 18.2606 14.3921 18.3192 14.3179 18.3497L7.63581 20.9153C7.59769 20.9289 7.56267 20.95 7.53281 20.9773C7.50295 21.0046 7.47885 21.0375 7.46193 21.0743C7.44501 21.111 7.4356 21.1507 7.43427 21.1911C7.43293 21.2315 7.43969 21.2717 7.45415 21.3095L10.0212 27.958C10.0504 28.0334 10.1082 28.0944 10.1821 28.1275C10.256 28.1607 10.3401 28.1635 10.4161 28.1352L17.0745 25.5855C17.1112 25.5695 17.1507 25.5612 17.1908 25.5609C17.2308 25.5606 17.2704 25.5685 17.3074 25.584C17.3443 25.5994 17.3777 25.6222 17.4055 25.6509C17.4334 25.6795 17.4551 25.7136 17.4694 25.7509L20.0285 32.4112C20.0428 32.4486 20.0645 32.4826 20.0923 32.5113C20.1202 32.54 20.1535 32.5628 20.1904 32.5783C20.2274 32.5938 20.2671 32.6016 20.3071 32.6013C20.3471 32.6011 20.3867 32.5927 20.4234 32.5768L27.0976 30.0388C27.1352 30.0242 27.1752 30.0173 27.2155 30.0184C27.2559 30.0194 27.2955 30.0285 27.3323 30.045C27.369 30.0615 27.4021 30.0851 27.4296 30.1145C27.4571 30.1439 27.4785 30.1784 27.4925 30.2161L30.0082 36.7188Z" fill="#191246"/>
<path d="M43.4395 6.8498C43.4541 6.88729 43.461 6.92729 43.4599 6.9675C43.4589 7.00769 43.4498 7.04727 43.4333 7.08394C43.4167 7.12061 43.3931 7.15364 43.3636 7.18109C43.3341 7.20856 43.2995 7.22989 43.2618 7.24389L37.6341 9.40358C37.2848 9.53639 37.0017 9.80081 36.8458 10.1398C36.69 10.479 36.6739 10.8656 36.8008 11.2165V11.2441L38.965 16.8482C38.9934 16.9239 38.9906 17.0078 38.9572 17.0816C38.924 17.1554 38.8629 17.2131 38.7873 17.2423L33.1676 19.394C32.822 19.5359 32.546 19.8072 32.3983 20.1497C32.2507 20.4922 32.2434 20.8788 32.3777 21.2266L34.534 26.8386C34.561 26.915 34.5571 26.9989 34.5232 27.0725C34.4893 27.1461 34.428 27.2036 34.3524 27.2328L27.69 29.7944C27.614 29.8216 27.5303 29.8183 27.4567 29.7852C27.383 29.7521 27.3251 29.6919 27.2951 29.6171L25.1427 24.009C25.0057 23.6656 24.7409 23.3886 24.4037 23.2358C24.0666 23.083 23.6832 23.0663 23.334 23.1892H23.3024L17.6708 25.3411C17.6338 25.3564 17.594 25.3641 17.554 25.3638C17.5139 25.3635 17.4743 25.3553 17.4375 25.3395C17.4007 25.3237 17.3675 25.3007 17.3397 25.2719C17.3119 25.243 17.2902 25.2089 17.2758 25.1716L14.7168 18.5152C14.6884 18.4394 14.6912 18.3555 14.7246 18.2817C14.7578 18.2079 14.8189 18.1502 14.8945 18.1211L21.5411 15.5713C21.6166 15.5439 21.6998 15.5466 21.7734 15.5789C21.847 15.6112 21.9052 15.6705 21.9359 15.7446L24.0962 21.3527C24.2301 21.7007 24.4952 21.9825 24.8347 22.138C25.1742 22.2934 25.5612 22.31 25.9128 22.1843H25.9444L30.5098 20.4266C30.8591 20.2938 31.1422 20.0293 31.298 19.6903C31.4539 19.3512 31.47 18.9646 31.343 18.6138V18.5862L29.1788 12.9781C29.1505 12.9023 29.1533 12.8184 29.1866 12.7446C29.2198 12.6708 29.2809 12.6131 29.3566 12.5839L34.9684 10.4282H34.9961C35.3406 10.2863 35.616 10.0158 35.7636 9.67419C35.9111 9.3326 35.9191 8.947 35.7859 8.59961L33.6335 2.9876C33.6184 2.95015 33.6111 2.91005 33.6119 2.8697C33.6127 2.82934 33.6216 2.78956 33.6382 2.75275C33.6548 2.71593 33.6787 2.68286 33.7085 2.65549C33.7382 2.62813 33.7732 2.60704 33.8113 2.59349L40.4974 0.0200098C40.5352 0.00558147 40.5755 -0.00116801 40.6159 0.000165147C40.6564 0.00149831 40.6962 0.0108872 40.733 0.0277732C40.7698 0.0446593 40.8028 0.0687068 40.8302 0.0985042C40.8575 0.128301 40.8786 0.163246 40.8922 0.201293L43.4395 6.8498Z" fill="url(#paint0_linear_1085_84)"/>
<path d="M25.9793 8.39467L27.8829 8.7139C27.9354 8.72301 27.9846 8.74554 28.0257 8.77931C28.0669 8.81308 28.0985 8.85691 28.1177 8.90656C28.1368 8.95619 28.1427 9.00992 28.1348 9.06249C28.1268 9.11507 28.1053 9.16469 28.0724 9.20653L26.8876 10.712C26.5035 11.1979 26.2481 11.7726 26.1452 12.383L25.8214 14.2826C25.813 14.3349 25.791 14.3841 25.7575 14.4253C25.7241 14.4664 25.6804 14.4982 25.6309 14.5173C25.5814 14.5365 25.5277 14.5423 25.4752 14.5343C25.4227 14.5263 25.3732 14.5047 25.3317 14.4717L23.8191 13.2894C23.3334 12.9033 22.7571 12.6469 22.1446 12.5446L20.2451 12.2253C20.1853 12.2239 20.1273 12.2049 20.0783 12.1707C20.0293 12.1365 19.9915 12.0887 19.9696 12.0332C19.9476 11.9777 19.9426 11.917 19.9551 11.8586C19.9676 11.8003 19.997 11.7469 20.0397 11.7051L21.2245 10.1957C21.6101 9.71931 21.8708 9.15449 21.9828 8.55231L22.3027 6.65273C22.3123 6.60069 22.3353 6.55202 22.3694 6.51145C22.4034 6.47086 22.4474 6.43975 22.497 6.42112C22.5467 6.4025 22.6004 6.39698 22.6528 6.4051C22.7052 6.41323 22.7546 6.43473 22.7962 6.46751L24.3088 7.64982C24.7931 8.0358 25.3681 8.29216 25.9793 8.39467Z" fill="#0454F1"/>
<defs>
<linearGradient id="paint0_linear_1085_84" x1="78.4999" y1="-1.3134e-09" x2="78.4999" y2="39.9832" gradientUnits="userSpaceOnUse">
<stop stop-color="#37F1C8"/>
<stop offset="1" stop-color="#28B8F2"/>
</linearGradient>
</defs>
</svg>
