<svg width="26" height="40" viewBox="0 0 26 40" fill="none" xmlns="http://www.w3.org/2000/svg">
<path d="M12.5718 0C10.0965 0.00312036 7.67692 0.739933 5.61588 2.11828C3.55484 3.49663 1.94379 5.45532 0.984227 7.74937C0.0246638 10.0434 -0.24081 12.571 0.221011 15.0159C0.682832 17.4609 1.85145 19.7146 3.58068 21.4953V37.9649C3.58161 38.273 3.66088 38.5759 3.81097 38.8446C3.96106 39.1133 4.17698 39.339 4.43823 39.5002C4.69948 39.6614 4.99738 39.7528 5.30365 39.7657C5.60991 39.7786 5.91438 39.7125 6.18812 39.5739L12.5718 36.374L18.9556 39.5739C19.2061 39.7029 19.4833 39.771 19.7648 39.7727C20.1014 39.7738 20.4317 39.6798 20.7178 39.5015C20.977 39.3387 21.1906 39.1122 21.3384 38.8433C21.4863 38.5744 21.5636 38.2721 21.563 37.9649V21.4953C23.2922 19.7146 24.4608 17.4609 24.9227 15.0159C25.3845 12.571 25.119 10.0434 24.1595 7.74937C23.1999 5.45532 21.5888 3.49663 19.5278 2.11828C17.4668 0.739933 15.0472 0.00312036 12.5718 0ZM17.9665 35.0361L13.381 32.7402C13.13 32.613 12.8529 32.5468 12.5718 32.5468C12.2908 32.5468 12.0136 32.613 11.7626 32.7402L7.17715 35.0361V24.0806C8.31528 24.6209 9.52759 24.9865 10.7736 25.1653V27.1178C10.7736 27.5972 10.9631 28.0571 11.3003 28.3961C11.6375 28.7351 12.0949 28.9256 12.5718 28.9256C13.0488 28.9256 13.5061 28.7351 13.8434 28.3961C14.1806 28.0571 14.3701 27.5972 14.3701 27.1178V25.1653C15.6161 24.9865 16.8284 24.6209 17.9665 24.0806V35.0361ZM12.5718 21.6942C10.7936 21.6942 9.05521 21.1641 7.57662 20.1708C6.09803 19.1776 4.94561 17.7658 4.2651 16.1141C3.58458 14.4624 3.40652 12.6449 3.75345 10.8915C4.10037 9.13804 4.9567 7.5274 6.21413 6.26324C7.47157 4.99908 9.07364 4.13817 10.8178 3.78939C12.5619 3.44061 14.3697 3.61961 16.0126 4.30377C17.6555 4.98793 19.0598 6.14652 20.0477 7.63302C21.0357 9.11951 21.563 10.8672 21.563 12.655C21.563 15.0523 20.6157 17.3515 18.9295 19.0467C17.2434 20.7419 14.9564 21.6942 12.5718 21.6942Z" fill="#3DFE90"/>
</svg>
