<svg width="63" height="61" viewBox="0 0 63 61" fill="none" xmlns="http://www.w3.org/2000/svg">
<path d="M60.1353 45.2013L53.5748 38.7196C52.1637 37.4256 50.3836 36.5682 48.4634 36.2577C46.5432 35.9471 44.5707 36.1976 42.7992 36.9769L39.9468 34.2253C43.308 29.8927 44.8431 24.4926 44.2429 19.1121C43.6428 13.7316 40.952 8.77015 36.7123 5.22656C32.4726 1.68298 26.9987 -0.17964 21.3926 0.0136715C15.7866 0.206983 10.4645 2.44187 6.49788 6.26843C2.53125 10.095 0.214559 15.2291 0.0141719 20.6372C-0.186215 26.0453 1.74458 31.3259 5.41788 35.4159C9.09118 39.5059 14.2342 42.1017 19.8117 42.6806C25.3892 43.2596 30.9869 41.7787 35.4781 38.5362L38.2988 41.2573C37.3958 42.9683 37.0722 44.9095 37.3735 46.8074C37.6749 48.7052 38.586 50.464 39.9785 51.8358L46.6974 58.3175C48.4802 60.0351 50.8967 60.9999 53.4163 60.9999C55.936 60.9999 58.3525 60.0351 60.1353 58.3175C61.0409 57.4633 61.7604 56.4431 62.2517 55.3169C62.7429 54.1908 62.996 52.9812 62.996 51.7594C62.996 50.5376 62.7429 49.328 62.2517 48.2019C61.7604 47.0757 61.0409 46.0555 60.1353 45.2013ZM33.2596 32.238C31.0418 34.372 28.2182 35.8241 25.1453 36.4109C22.0725 36.9976 18.8884 36.6926 15.9951 35.5344C13.1019 34.3762 10.6294 32.4169 8.88989 29.9038C7.15043 27.3907 6.22206 24.4367 6.22206 21.4148C6.22206 18.393 7.15043 15.439 8.88989 12.9259C10.6294 10.4128 13.1019 8.4534 15.9951 7.29523C18.8884 6.13707 22.0725 5.83208 25.1453 6.4188C28.2182 7.00552 31.0418 8.45762 33.2596 10.5917C34.7353 12.0117 35.9061 13.6986 36.705 15.5558C37.5039 17.4131 37.9151 19.4041 37.9151 21.4148C37.9151 23.4256 37.5039 25.4166 36.705 27.2738C35.9061 29.131 34.7353 30.818 33.2596 32.238ZM55.6666 53.8537C55.3719 54.1403 55.0214 54.3677 54.6352 54.5229C54.249 54.6782 53.8347 54.7581 53.4163 54.7581C52.998 54.7581 52.5837 54.6782 52.1975 54.5229C51.8113 54.3677 51.4608 54.1403 51.1661 53.8537L44.4472 47.3721C44.1502 47.0878 43.9144 46.7497 43.7535 46.3771C43.5926 46.0045 43.5097 45.6049 43.5097 45.2013C43.5097 44.7977 43.5926 44.3981 43.7535 44.0255C43.9144 43.6529 44.1502 43.3148 44.4472 43.0306C44.7418 42.744 45.0924 42.5165 45.4786 42.3613C45.8648 42.2061 46.279 42.1262 46.6974 42.1262C47.1158 42.1262 47.5301 42.2061 47.9163 42.3613C48.3025 42.5165 48.653 42.744 48.9476 43.0306L55.6666 49.5122C55.9636 49.7964 56.1994 50.1346 56.3603 50.5072C56.5212 50.8797 56.604 51.2794 56.604 51.683C56.604 52.0866 56.5212 52.4862 56.3603 52.8588C56.1994 53.2313 55.9636 53.5695 55.6666 53.8537Z" fill="white"/>
</svg>
