<svg width="61" height="73" viewBox="0 0 61 73" fill="none" xmlns="http://www.w3.org/2000/svg">
<path d="M25.1625 11.884C24.152 12.0653 23.2552 12.6391 22.6692 13.4793C22.0833 14.3195 21.8563 15.3573 22.0382 16.3642C22.2201 17.3712 22.796 18.2649 23.6391 18.8488C24.4823 19.4327 25.5237 19.6589 26.5342 19.4776C27.7928 19.2609 29.0671 19.1466 30.3443 19.1359C36.4074 19.1359 42.2222 21.536 46.5094 25.8082C50.7967 30.0805 53.2052 35.8749 53.2052 41.9167C53.1944 43.1895 53.0798 44.4593 52.8623 45.7135C52.6842 46.6999 52.9046 47.7165 53.4757 48.5415C54.0467 49.3666 54.9219 49.9332 55.9104 50.1178H56.5962C57.4984 50.1325 58.3766 49.8276 59.0743 49.2575C59.7721 48.6873 60.2441 47.8889 60.4064 47.0044C60.7601 45.2794 60.9515 43.5253 60.9779 41.7649C60.9605 35.0057 58.6811 28.4454 54.5007 23.1225L57.9679 19.7054C58.6854 18.9905 59.0884 18.0208 59.0884 17.0097C59.0884 15.9986 58.6854 15.0289 57.9679 14.314C57.2504 13.599 56.2773 13.1973 55.2627 13.1973C54.248 13.1973 53.275 13.599 52.5575 14.314L49.1284 17.769C43.7976 13.6464 37.2446 11.4029 30.4967 11.3904C28.707 11.387 26.921 11.5523 25.1625 11.884ZM22.8765 7.59361H38.117C39.1276 7.59361 40.0967 7.19359 40.8112 6.48155C41.5258 5.76951 41.9272 4.80378 41.9272 3.7968C41.9272 2.78983 41.5258 1.8241 40.8112 1.11206C40.0967 0.400019 39.1276 0 38.117 0H22.8765C21.8659 0 20.8968 0.400019 20.1823 1.11206C19.4677 1.8241 19.0663 2.78983 19.0663 3.7968C19.0663 4.80378 19.4677 5.76951 20.1823 6.48155C20.8968 7.19359 21.8659 7.59361 22.8765 7.59361ZM36.1739 42.0686C36.1739 42.0686 36.1739 41.8788 36.1739 41.7649C36.1739 41.6509 36.1739 41.575 36.1739 41.4611L41.2795 36.4114C41.6347 36.0574 41.9165 35.6371 42.1088 35.1745C42.301 34.712 42.4 34.2163 42.4 33.7156C42.4 33.215 42.301 32.7192 42.1088 32.2567C41.9165 31.7942 41.6347 31.3739 41.2795 31.0199C40.9242 30.6659 40.5025 30.3851 40.0383 30.1935C39.5741 30.0019 39.0767 29.9033 38.5743 29.9033C38.0718 29.9033 37.5744 30.0019 37.1102 30.1935C36.646 30.3851 36.2243 30.6659 35.8691 31.0199L30.8016 36.0696H30.1919L6.53094 12.4915C5.81347 11.7765 4.84038 11.3749 3.82573 11.3749C2.81109 11.3749 1.838 11.7765 1.12053 12.4915C0.403067 13.2064 7.55972e-09 14.1761 0 15.1872C-7.55971e-09 16.1983 0.403067 17.168 1.12053 17.8829L2.9494 19.7054L6.41663 23.1605C1.89578 29.0061 -0.334709 36.2919 0.141894 43.6566C0.618498 51.0214 3.76959 57.9614 9.00644 63.1799C14.2433 68.3984 21.2076 71.5385 28.5983 72.0134C35.989 72.4884 43.3004 70.2657 49.1665 65.7607L54.4626 71.0382C54.8168 71.3941 55.2382 71.6765 55.7025 71.8693C56.1668 72.0621 56.6648 72.1613 57.1678 72.1613C57.6707 72.1613 58.1688 72.0621 58.6331 71.8693C59.0974 71.6765 59.5188 71.3941 59.873 71.0382C60.2301 70.6852 60.5135 70.2653 60.707 69.8026C60.9004 69.34 61 68.8437 61 68.3425C61 67.8413 60.9004 67.345 60.707 66.8823C60.5135 66.4196 60.2301 65.9997 59.873 65.6468L36.1739 42.0686ZM30.4967 64.5457C26.286 64.5573 22.1538 63.4098 18.556 61.2297C14.9581 59.0497 12.0344 55.9217 10.1073 52.1909C8.18014 48.4601 7.32448 44.2714 7.63467 40.0868C7.94486 35.9021 9.40884 31.8842 11.8651 28.476L24.8196 41.3472C24.8196 41.3472 24.8196 41.537 24.8196 41.6509C24.8045 42.4052 24.9398 43.1549 25.2179 43.8566C25.4959 44.5583 25.9111 45.1979 26.4393 45.7384C26.9674 46.2789 27.5981 46.7094 28.2947 47.0049C28.9912 47.3005 29.7397 47.4552 30.4967 47.4601H30.8016L43.718 60.3692C39.8512 63.0921 35.2315 64.5514 30.4967 64.5457Z" fill="white"/>
</svg>
