<svg width="75" height="76" viewBox="0 0 75 76" fill="none" xmlns="http://www.w3.org/2000/svg">
<path d="M71.5909 47.8342H64.7727V37.584C64.7727 36.6778 64.4136 35.8088 63.7742 35.168C63.1349 34.5273 62.2678 34.1673 61.3636 34.1673H40.9091V27.3338H47.7273C48.6314 27.3338 49.4985 26.9739 50.1379 26.3331C50.7772 25.6923 51.1364 24.8233 51.1364 23.9171V3.41673C51.1364 2.51056 50.7772 1.6415 50.1379 1.00074C49.4985 0.359976 48.6314 0 47.7273 0H27.2727C26.3686 0 25.5015 0.359976 24.8621 1.00074C24.2228 1.6415 23.8636 2.51056 23.8636 3.41673V23.9171C23.8636 24.8233 24.2228 25.6923 24.8621 26.3331C25.5015 26.9739 26.3686 27.3338 27.2727 27.3338H34.0909V34.1673H13.6364C12.7322 34.1673 11.8651 34.5273 11.2258 35.168C10.5864 35.8088 10.2273 36.6778 10.2273 37.584V47.8342H3.40909C2.50494 47.8342 1.63783 48.1942 0.998499 48.8349C0.359171 49.4757 0 50.3447 0 51.2509V71.7513C0 72.6575 0.359171 73.5265 0.998499 74.1673C1.63783 74.8081 2.50494 75.168 3.40909 75.168H23.8636C24.7678 75.168 25.6349 74.8081 26.2742 74.1673C26.9136 73.5265 27.2727 72.6575 27.2727 71.7513V51.2509C27.2727 50.3447 26.9136 49.4757 26.2742 48.8349C25.6349 48.1942 24.7678 47.8342 23.8636 47.8342H17.0455V41.0007H57.9545V47.8342H51.1364C50.2322 47.8342 49.3651 48.1942 48.7258 48.8349C48.0864 49.4757 47.7273 50.3447 47.7273 51.2509V71.7513C47.7273 72.6575 48.0864 73.5265 48.7258 74.1673C49.3651 74.8081 50.2322 75.168 51.1364 75.168H71.5909C72.4951 75.168 73.3622 74.8081 74.0015 74.1673C74.6408 73.5265 75 72.6575 75 71.7513V51.2509C75 50.3447 74.6408 49.4757 74.0015 48.8349C73.3622 48.1942 72.4951 47.8342 71.5909 47.8342ZM20.4545 54.6677V68.3346H6.81818V54.6677H20.4545ZM30.6818 20.5004V6.83346H44.3182V20.5004H30.6818ZM68.1818 68.3346H54.5455V54.6677H68.1818V68.3346Z" fill="white"/>
</svg>
