<svg width="61" height="76" viewBox="0 0 61 76" fill="none" xmlns="http://www.w3.org/2000/svg">
<path d="M59.5894 6.19712C59.1464 5.8438 58.6288 5.59286 58.0746 5.46273C57.5204 5.33261 56.9437 5.32662 56.3869 5.4452C52.313 6.28714 48.1074 6.29786 44.0292 5.47672C39.9509 4.65558 36.0862 3.01995 32.6731 0.670541C32.0349 0.233951 31.2767 0 30.5 0C29.7233 0 28.9651 0.233951 28.3269 0.670541C24.9138 3.01995 21.0491 4.65558 16.9708 5.47672C12.8926 6.29786 8.68704 6.28714 4.61314 5.4452C4.05628 5.32662 3.47956 5.33261 2.92535 5.46273C2.37115 5.59286 1.85357 5.8438 1.41065 6.19712C0.968317 6.55097 0.612008 6.99805 0.367899 7.50551C0.12379 8.01298 -0.0019146 8.56793 2.20419e-05 9.12959V37.1384C-0.00336741 42.5287 1.29922 47.8418 3.79931 52.6353C6.2994 57.4287 9.92464 61.5638 14.3731 64.6962L28.2888 74.4711C28.9344 74.9244 29.7074 75.168 30.5 75.168C31.2926 75.168 32.0656 74.9244 32.7113 74.4711L46.6269 64.6962C51.0754 61.5638 54.7006 57.4287 57.2007 52.6353C59.7008 47.8418 61.0034 42.5287 61 37.1384V9.12959C61.0019 8.56793 60.8762 8.01298 60.6321 7.50551C60.388 6.99805 60.0317 6.55097 59.5894 6.19712ZM53.375 37.1384C53.3779 41.3295 52.3658 45.4606 50.4228 49.188C48.4798 52.9154 45.6622 56.1313 42.2044 58.568L30.5 66.8015L18.7956 58.568C15.3378 56.1313 12.5202 52.9154 10.5772 49.188C8.63424 45.4606 7.62209 41.3295 7.62502 37.1384V13.4531C15.6176 14.1277 23.6224 12.299 30.5 8.22729C37.3776 12.299 45.3824 14.1277 53.375 13.4531V37.1384ZM36.3712 28.529L26.1156 38.6799L22.7225 35.2963C22.0046 34.5883 21.0309 34.1906 20.0156 34.1906C19.0004 34.1906 18.0267 34.5883 17.3088 35.2963C16.5909 36.0042 16.1875 36.9644 16.1875 37.9656C16.1875 38.9667 16.5909 39.9269 17.3088 40.6349L23.4088 46.6502C23.7632 47.0026 24.1848 47.2822 24.6494 47.4731C25.114 47.664 25.6123 47.7623 26.1156 47.7623C26.6189 47.7623 27.1172 47.664 27.5818 47.4731C28.0464 47.2822 28.4681 47.0026 28.8225 46.6502L41.9375 33.83C42.6554 33.1221 43.0587 32.1619 43.0587 31.1607C43.0587 30.1595 42.6554 29.1994 41.9375 28.4914C41.2196 27.7835 40.2459 27.3858 39.2306 27.3858C38.2153 27.3858 37.2417 27.7835 36.5237 28.4914L36.3712 28.529Z" fill="white"/>
</svg>
