<svg width="50" height="80" viewBox="0 0 50 80" fill="none" xmlns="http://www.w3.org/2000/svg">
<path d="M25 0C20.0775 0.00620506 15.2661 1.47141 11.1676 4.21235C7.06906 6.95329 3.86536 10.8483 1.9572 15.4102C0.0490456 19.972 -0.478867 24.9983 0.439497 29.8602C1.35786 34.7222 3.68173 39.204 7.12045 42.745V75.4958C7.12229 76.1087 7.27993 76.7109 7.57839 77.2452C7.87685 77.7795 8.30622 78.2283 8.82573 78.5489C9.34525 78.8695 9.93765 79.0512 10.5467 79.0769C11.1557 79.1025 11.7612 78.9712 12.3055 78.6954L25 72.3322L37.6945 78.6954C38.1927 78.9521 38.7439 79.0875 39.3036 79.0909C39.9731 79.0931 40.6298 78.9062 41.1989 78.5516C41.7142 78.2278 42.139 77.7773 42.433 77.2427C42.7271 76.708 42.8808 76.1068 42.8795 75.4958V42.745C46.3183 39.204 48.6421 34.7222 49.5605 29.8602C50.4789 24.9983 49.9509 19.972 48.0428 15.4102C46.1346 10.8483 42.9309 6.95329 38.8324 4.21235C34.7339 1.47141 29.9225 0.00620506 25 0ZM35.7277 69.6719L26.6092 65.1062C26.11 64.8533 25.5589 64.7216 25 64.7216C24.4411 64.7216 23.89 64.8533 23.3908 65.1062L14.2723 69.6719V47.8859C16.5355 48.9604 18.9463 49.6875 21.4241 50.043V53.9256C21.4241 54.8791 21.8008 55.7935 22.4714 56.4677C23.1421 57.1419 24.0516 57.5206 25 57.5206C25.9484 57.5206 26.8579 57.1419 27.5285 56.4677C28.1992 55.7935 28.5759 54.8791 28.5759 53.9256V50.043C31.0537 49.6875 33.4645 48.9604 35.7277 47.8859V69.6719ZM25 43.1405C21.4638 43.1405 18.0069 42.0863 15.0666 40.1111C12.1264 38.136 9.83471 35.3286 8.48145 32.0441C7.12819 28.7596 6.77411 25.1453 7.464 21.6585C8.15388 18.1716 9.85675 14.9688 12.3572 12.4549C14.8577 9.94102 18.0436 8.22905 21.5119 7.53547C24.9802 6.84189 28.5751 7.19786 31.8422 8.55836C35.1093 9.91886 37.9017 12.2228 39.8663 15.1788C41.8309 18.1348 42.8795 21.6101 42.8795 25.1653C42.8795 29.9326 40.9958 34.5047 37.6427 37.8757C34.2897 41.2467 29.7419 43.1405 25 43.1405Z" fill="white"/>
</svg>
