<svg width="41" height="40" viewBox="0 0 41 40" fill="none" xmlns="http://www.w3.org/2000/svg">
<path d="M20.0536 0.00105763C16.9867 -0.00448606 13.9596 0.694117 11.2058 2.04295C8.45203 3.39178 6.0453 5.35476 4.17136 7.78038C2.29742 10.206 1.00639 13.0294 0.397919 16.0326C-0.210549 19.0359 -0.120185 22.1386 0.662037 25.1014C1.44426 28.0643 2.89742 30.8079 4.90936 33.1205C6.92129 35.4332 9.4382 37.253 12.2658 38.4396C15.0934 39.6262 18.1561 40.1477 21.2175 39.964C24.2789 39.7803 27.2571 38.8963 29.9222 37.3801H30.0623H30.1624C34.0163 35.1882 37.0326 31.7797 38.7378 27.6898C40.443 23.5999 40.7406 19.06 39.5838 14.7827C38.4271 10.5055 35.8815 6.73315 32.3467 4.05778C28.8119 1.38241 24.4879 -0.0444922 20.0536 0.00105763ZM22.0554 4.14095C25.5785 4.58732 28.8531 6.19109 31.3643 8.7C33.8754 11.2089 35.4806 14.4806 35.9274 18.0006H22.0554V4.14095ZM20.0536 36.0001C15.9991 35.9725 12.106 34.4093 9.16002 31.6259C6.21402 28.8426 4.43444 25.0463 4.18042 21.0033C3.92639 16.9603 5.21683 12.9715 7.79132 9.84192C10.3658 6.71234 14.0327 4.67496 18.0519 4.14095V20.0005C18.0598 20.24 18.1071 20.4765 18.192 20.7005V20.8605V21.0005L26.199 34.7402C24.2568 35.5707 22.1662 35.9993 20.0536 36.0001ZM29.722 32.7202L23.5166 22.0005H35.9274C35.6579 24.1096 34.9703 26.1439 33.9048 27.9845C32.8394 29.8251 31.4174 31.435 29.722 32.7202Z" fill="#3DFE90"/>
</svg>
