<svg width="55" height="56" viewBox="0 0 55 56" fill="none" xmlns="http://www.w3.org/2000/svg">
<path d="M35.5998 29.7746L29.8972 26.384V14C29.8972 13.2574 29.6109 12.5452 29.1012 12.0201C28.5915 11.495 27.9001 11.2 27.1793 11.2C26.4585 11.2 25.7671 11.495 25.2574 12.0201C24.7477 12.5452 24.4614 13.2574 24.4614 14V28C24.4612 28.4916 24.5868 28.9746 24.8253 29.4003C25.0639 29.8261 25.4071 30.1796 25.8203 30.4254L32.8819 34.6254C33.1911 34.8095 33.5324 34.929 33.8865 34.9771C34.2405 35.0252 34.6003 35.001 34.9452 34.9058C35.2901 34.8107 35.6135 34.6465 35.8968 34.4225C36.1801 34.1986 36.4178 33.9193 36.5964 33.6007C36.7749 33.2821 36.8907 32.9304 36.9373 32.5656C36.9838 32.2009 36.9601 31.8303 36.8676 31.475C36.775 31.1196 36.6154 30.7866 36.3979 30.4948C36.1804 30.2031 35.9092 29.9584 35.5998 29.7746ZM27.1793 0C21.8037 0 16.5489 1.64217 12.0793 4.71885C7.60969 7.79553 4.12605 12.1685 2.06891 17.2849C0.0117764 22.4012 -0.526464 28.0311 0.522255 33.4625C1.57097 38.894 4.15955 43.8831 7.96064 47.799C11.7617 51.7148 16.6046 54.3816 21.8769 55.462C27.1492 56.5424 32.614 55.9879 37.5804 53.8686C42.5467 51.7494 46.7916 48.1605 49.7781 43.556C52.7645 38.9514 54.3586 33.5379 54.3586 28C54.3506 20.5765 51.4845 13.4594 46.3891 8.21013C41.2937 2.9609 34.3852 0.00825602 27.1793 0ZM27.1793 50.4C22.8789 50.4 18.675 49.0862 15.0993 46.6249C11.5236 44.1636 8.7367 40.6652 7.09099 36.5721C5.44528 32.479 5.01469 27.9751 5.85366 23.63C6.69264 19.2848 8.7635 15.2935 11.8044 12.1608C14.8452 9.02811 18.7196 6.89472 22.9374 6.03041C27.1552 5.1661 31.5271 5.60969 35.5002 7.3051C39.4732 9.0005 42.8691 11.8716 45.2583 15.5552C47.6475 19.2389 48.9227 23.5697 48.9227 28C48.9161 33.9388 46.6232 39.6323 42.5469 43.8317C38.4707 48.031 32.944 50.3932 27.1793 50.4Z" fill="white"/>
</svg>
