<svg width="400" height="102" viewBox="0 0 400 102" fill="none" xmlns="http://www.w3.org/2000/svg">
<path d="M144.05 76.5106C139.865 74.1208 136.397 70.6483 134.011 66.4568C131.619 62.0559 130.366 57.1252 130.366 52.1149C130.366 47.1044 131.619 42.1739 134.011 37.773C136.401 33.6052 139.869 30.1598 144.05 27.7996C147.847 25.7229 152.049 24.4971 156.365 24.2072C160.681 23.9173 165.009 24.5701 169.048 26.1205C172.233 27.3686 175.123 29.2693 177.532 31.7004C179.691 33.8756 181.38 36.4732 182.491 39.3315C182.562 39.5212 182.558 39.7311 182.48 39.9181C182.402 40.1048 182.255 40.2548 182.069 40.3367L171.418 44.9414C170.42 42.3229 168.674 40.0569 166.398 38.4265C164.057 36.756 161.24 35.8886 158.366 35.9533C155.706 35.9074 153.088 36.63 150.827 38.0344C148.609 39.4294 146.816 41.4085 145.646 43.7551C144.41 46.3718 143.77 49.2304 143.77 52.1249C143.77 55.0196 144.41 57.8782 145.646 60.4949C146.806 62.8645 148.599 64.8657 150.827 66.2757C153.091 67.6725 155.707 68.3913 158.366 68.3469C161.233 68.4142 164.046 67.5656 166.398 65.924C168.717 64.2727 170.47 61.9447 171.418 59.2583L182.09 64.0941C182.273 64.1781 182.418 64.3286 182.494 64.5153C182.57 64.702 182.573 64.9109 182.501 65.0996C181.41 67.8931 179.752 70.43 177.632 72.5494C175.218 74.9865 172.331 76.9029 169.149 78.1797C165.099 79.7637 160.75 80.4345 156.412 80.1442C152.074 79.8542 147.853 78.61 144.05 76.5006V76.5106Z" fill="white"/>
<path d="M203.465 76.4708C199.382 74.0216 196.043 70.504 193.808 66.2962C191.478 61.921 190.29 57.0275 190.354 52.07C190.259 47.059 191.462 42.1089 193.848 37.7029C196.102 33.6047 199.404 30.1799 203.415 27.7797C207.512 25.3286 212.207 24.0619 216.979 24.1201C221.955 23.963 226.875 25.2139 231.174 27.7295C234.956 30.0238 238.028 33.3231 240.049 37.2606C242.117 41.3243 243.168 45.8303 243.111 50.3909C243.112 51.3648 243.062 52.3381 242.961 53.3066C242.881 54.1664 242.699 55.0138 242.419 55.83H203.757C204.003 58.8209 205.176 61.6598 207.112 63.9506C209.048 66.2413 211.65 67.8694 214.554 68.6081C217.458 69.3465 220.521 69.1583 223.313 68.0696C226.105 66.9813 228.489 65.0466 230.13 62.536C230.229 62.3686 230.388 62.2452 230.575 62.1911C230.761 62.1368 230.961 62.1559 231.134 62.2444L240.973 67.0805C239.179 71.0697 236.152 74.3759 232.339 76.5108C227.99 79.049 223.025 80.333 217.993 80.2208C212.897 80.3376 207.869 79.0396 203.465 76.4708ZM208.646 37.7029C206.203 39.8306 204.58 42.7471 204.058 45.9472H229.307C229.142 42.8721 227.78 39.9842 225.512 37.9041C223.176 35.8001 220.118 34.6831 216.979 34.7872C213.941 34.7229 210.982 35.7582 208.646 37.7029Z" fill="white"/>
<path d="M282.898 25.8378L277.426 38.1134C277.367 38.2422 277.273 38.3514 277.154 38.4279C277.034 38.5047 276.897 38.5455 276.755 38.5458H266.595C266.389 38.5486 266.191 38.6322 266.046 38.7791C265.904 38.9258 265.822 39.1237 265.822 39.3301V79.053H252.881V25.3149H265.008C265.217 25.3149 265.415 25.3975 265.563 25.5447C265.708 25.6916 265.792 25.8911 265.792 26.0992V35.2281L270.27 25.1742C270.326 25.0428 270.42 24.9309 270.539 24.8523C270.659 24.7737 270.799 24.7318 270.941 24.7318H282.217C282.347 24.7288 282.476 24.7603 282.591 24.823C282.708 24.8856 282.804 24.9774 282.873 25.0891C282.942 25.2009 282.98 25.3288 282.985 25.4601C282.99 25.5914 282.96 25.7215 282.898 25.8378Z" fill="white"/>
<path d="M296.422 5.46055H307.654C307.784 5.46137 307.909 5.49404 308.023 5.55569C308.135 5.61732 308.229 5.70595 308.3 5.81364C308.369 5.92133 308.412 6.04466 308.422 6.17255C308.432 6.30046 308.41 6.42891 308.359 6.54637L302.876 18.8021C302.815 18.937 302.716 19.0513 302.591 19.1315C302.467 19.2118 302.322 19.2544 302.174 19.2545H289.754L295.717 5.88281C295.784 5.75355 295.885 5.6454 296.01 5.57074C296.134 5.49608 296.277 5.4579 296.422 5.46055Z" fill="white"/>
<path d="M290.537 25.3074H302.675V79.0354H289.754V26.0916C289.754 25.8837 289.838 25.6843 289.985 25.5371C290.13 25.3901 290.331 25.3074 290.537 25.3074Z" fill="white"/>
<path d="M399.116 25.2952L380.351 72.8501C380.351 72.8501 375.944 83.658 373.966 87.9309C372.435 91.3083 370.729 94.6037 368.857 97.8038H354.942V97.5324C356.488 94.9988 358.184 92.0931 359.962 88.7652C361.739 85.4376 363.344 82.1901 364.73 79.0735L348.287 37.4001C348.228 37.258 348.129 37.1361 348.002 37.0504C347.875 36.9644 347.727 36.918 347.572 36.9175H333.728V79.0232H320.807V37.6414C320.805 37.4368 320.723 37.2414 320.578 37.0968C320.433 36.9522 320.24 36.8698 320.034 36.8672H311.35V26.0692C311.35 25.8639 311.431 25.667 311.576 25.5219C311.721 25.3767 311.919 25.2952 312.123 25.2952H320.807V23.5357C320.807 17.3928 322.656 12.6675 326.33 9.30948C330.003 5.9515 334.954 4.28254 341.118 4.28254C342.601 4.2717 344.083 4.3962 345.545 4.65453C345.723 4.68988 345.884 4.78683 345.995 4.92837C346.11 5.06991 346.171 5.247 346.168 5.42868V15.925C345.06 15.7426 343.938 15.6484 342.814 15.6434C340.444 15.5099 338.097 16.1831 336.159 17.5537C334.521 18.8506 333.718 20.8312 333.718 23.586V25.3454H356.869C357.024 25.3526 357.175 25.4062 357.302 25.4993C357.426 25.5925 357.52 25.7208 357.571 25.8682L371.286 62.374L385.061 25.2952H399.116Z" fill="white"/>
<path d="M76.2848 93.672C76.3558 93.8411 76.3644 94.0298 76.3092 94.2048C76.254 94.3798 76.1386 94.5293 75.9835 94.6269C75.2005 95.1197 74.3872 95.6324 73.564 96.0043C73.3392 96.1395 73.1043 96.2573 72.8614 96.3563C72.0258 96.83 71.1645 97.2562 70.2813 97.6332C70.262 97.6411 70.2403 97.6411 70.221 97.6332C69.5382 97.9548 68.8254 98.2364 68.1429 98.4978C67.219 98.8396 66.2855 99.1914 65.3517 99.5031C63.9764 99.9456 62.5508 100.338 61.1552 100.659L59.0471 101.112C47.464 103.343 35.4661 101.338 25.2341 95.4615C23.8989 94.7076 22.5938 93.8829 21.2987 92.9881C20.7465 92.5961 20.1843 92.2041 19.6221 91.7817C19.0599 91.3595 18.5278 90.9272 17.9957 90.4949C16.8914 89.5799 15.8171 88.6349 14.7931 87.6093C14.2108 87.0364 13.6586 86.4533 13.1065 85.87C12.5543 85.2869 11.9921 84.6436 11.5002 84.0202C11.0082 83.3968 10.4962 82.7434 9.97416 82.0899C9.45211 81.4364 9.03045 80.7829 8.5586 80.0789C8.08675 79.3752 7.55465 78.5307 7.0326 77.7165C3.67693 71.9974 1.44805 65.6868 0.4668 59.1267L0.406564 58.7247C0.326248 58.1717 0.286089 57.6187 0.205775 57.0555C-0.786528 46.1032 1.82847 35.1267 7.65133 25.8024C13.4742 16.4783 22.1848 9.31924 32.4526 5.41886C33.0899 5.1582 33.7399 4.93002 34.4 4.7352C34.4822 4.68268 34.5747 4.6484 34.6711 4.63465C35.7857 4.28276 36.9001 3.97109 37.9943 3.68958C39.0886 3.40808 39.9117 3.26734 40.8956 3.09642C41.0785 3.06339 41.2669 3.0956 41.4284 3.18745C41.5899 3.27933 41.714 3.425 41.7791 3.5991L48.1442 20.2584C48.1808 20.3547 48.1981 20.4573 48.1948 20.5604C48.1912 20.6634 48.1673 20.7647 48.1244 20.8584C48.0814 20.952 48.0201 21.0361 47.9443 21.1057C47.8683 21.1753 47.7793 21.2291 47.6824 21.2638L30.7559 27.8491C30.5616 27.9215 30.4042 28.0679 30.3175 28.2562C30.231 28.4447 30.2227 28.6597 30.2941 28.8546L36.8197 45.8053C36.896 45.9948 36.8945 46.2068 36.8156 46.395C36.7366 46.5833 36.5865 46.7327 36.3981 46.8108L19.4112 53.3558C19.3143 53.3905 19.2253 53.4443 19.1494 53.5139C19.0735 53.5836 19.0122 53.6675 18.9692 53.7614C18.9262 53.855 18.9023 53.9562 18.8989 54.0593C18.8955 54.1623 18.9127 54.2649 18.9494 54.3613L25.4751 71.3222C25.5494 71.5145 25.6964 71.6701 25.8843 71.7548C26.0722 71.8395 26.2858 71.8466 26.4791 71.7745L43.4056 65.2697C43.4989 65.2289 43.5994 65.2077 43.7013 65.207C43.803 65.2062 43.9038 65.2264 43.9976 65.2659C44.0914 65.3052 44.1764 65.3633 44.2471 65.4365C44.318 65.5098 44.3732 65.5967 44.4096 65.6919L50.9151 82.6829C50.9514 82.7783 51.0066 82.865 51.0773 82.9382C51.1482 83.0114 51.2329 83.0696 51.3268 83.1091C51.4206 83.1487 51.5216 83.1686 51.6233 83.1678C51.725 83.1673 51.8257 83.1459 51.919 83.1053L68.8857 76.6307C68.9813 76.5934 69.083 76.5758 69.1855 76.5786C69.288 76.5812 69.3887 76.6044 69.4823 76.6465C69.5756 76.6886 69.6598 76.7488 69.7297 76.8238C69.7996 76.8988 69.8541 76.9867 69.8897 77.0829L76.2848 93.672Z" fill="white"/>
<path d="M110.43 17.4744C110.467 17.5701 110.485 17.6721 110.482 17.7747C110.48 17.8772 110.457 17.9782 110.415 18.0718C110.372 18.1653 110.312 18.2496 110.238 18.3196C110.163 18.3897 110.075 18.4441 109.979 18.4798L95.6723 23.9894C94.7843 24.3282 94.0646 25.0027 93.6684 25.8676C93.2722 26.7328 93.2312 27.7192 93.554 28.6142V28.6846L99.0557 42.9811C99.1277 43.1745 99.1206 43.3885 99.0359 43.5767C98.9515 43.7649 98.7961 43.9121 98.6038 43.9866L84.3178 49.4759C83.4394 49.8378 82.7376 50.5298 82.3622 51.4037C81.9868 52.2773 81.9683 53.2636 82.3098 54.151L87.7915 68.4677C87.8602 68.6626 87.8502 68.8766 87.764 69.0643C87.6778 69.252 87.5219 69.3987 87.3297 69.4732L70.3931 76.0082C70.1998 76.0776 69.9872 76.0692 69.8 75.9848C69.6126 75.9003 69.4654 75.7465 69.3891 75.5558L63.9176 61.249C63.5692 60.3731 62.896 59.6663 62.0388 59.2766C61.1818 58.8869 60.2073 58.8443 59.3196 59.1577H59.2392L44.9229 64.6473C44.8288 64.6863 44.7278 64.706 44.6261 64.7052C44.5241 64.7044 44.4234 64.6835 44.3298 64.6432C44.2363 64.6029 44.1518 64.5442 44.0811 64.4708C44.0107 64.3971 43.9555 64.3101 43.9189 64.215L37.4134 47.2339C37.3414 47.0405 37.3485 46.8265 37.4332 46.6383C37.5176 46.45 37.673 46.3029 37.8653 46.2286L54.7617 39.7237C54.9537 39.6538 55.1653 39.6607 55.3522 39.743C55.5394 39.8254 55.6874 39.9769 55.7655 40.1659L61.2571 54.4727C61.5976 55.3603 62.2715 56.0793 63.1346 56.476C63.9977 56.8723 64.9813 56.9147 65.8752 56.5941H65.9555L77.5613 52.11C78.4493 51.7712 79.1689 51.0966 79.5651 50.2317C79.9613 49.3667 80.0023 48.3804 79.6796 47.4854V47.415L74.1778 33.1082C74.1058 32.9149 74.113 32.7009 74.1976 32.5127C74.2821 32.3244 74.4374 32.1772 74.6297 32.1028L88.8957 26.6033H88.9661C89.8419 26.2413 90.542 25.5511 90.9171 24.6797C91.2922 23.8083 91.3125 22.8246 90.9738 21.9384L85.5023 7.62162C85.4639 7.5261 85.4453 7.42379 85.4474 7.32085C85.4494 7.2179 85.472 7.11641 85.5142 7.0225C85.5565 6.92858 85.6172 6.8442 85.6928 6.77439C85.7683 6.70458 85.8573 6.65079 85.9542 6.61623L102.951 0.0510468C103.047 0.0142388 103.15 -0.00297971 103.252 0.000421305C103.355 0.00382232 103.457 0.0277742 103.55 0.070852C103.644 0.11393 103.727 0.175277 103.797 0.251293C103.867 0.327308 103.92 0.416454 103.955 0.513517L110.43 17.4744Z" fill="white"/>
<path d="M66.0426 21.4153L70.8817 22.2297C71.0152 22.2529 71.1403 22.3104 71.2448 22.3966C71.3496 22.4827 71.43 22.5946 71.4785 22.7212C71.5271 22.8478 71.5421 22.9849 71.522 23.119C71.5017 23.2531 71.4473 23.3797 71.3636 23.4864L68.3517 27.3269C67.3752 28.5666 66.7259 30.0327 66.4643 31.5899L65.6411 36.4359C65.6197 36.5693 65.5638 36.6948 65.4788 36.7999C65.3939 36.905 65.2828 36.9861 65.1569 37.0348C65.031 37.0838 64.8945 37.0986 64.7612 37.0782C64.6277 37.0578 64.5018 37.0027 64.3963 36.9185L60.551 33.9023C59.3164 32.9172 57.8514 32.2633 56.2943 32.0021L51.4654 31.1876C51.3136 31.1841 51.1661 31.1356 51.0415 31.0484C50.9169 30.9611 50.8207 30.8392 50.765 30.6977C50.7091 30.5558 50.6964 30.401 50.7282 30.2521C50.76 30.1033 50.8347 29.9671 50.9433 29.8605L53.9552 26.01C54.9356 24.7946 55.5983 23.3537 55.8828 21.8175L56.6961 16.9715C56.7205 16.8387 56.779 16.7146 56.8657 16.6111C56.9522 16.5075 57.0641 16.4282 57.1902 16.3806C57.3166 16.3331 57.4529 16.319 57.5861 16.3398C57.7194 16.3605 57.845 16.4153 57.9508 16.499L61.7961 19.5152C63.0271 20.4998 64.4888 21.1538 66.0426 21.4153Z" fill="white"/>
</svg>
