<svg width="50" height="78" viewBox="0 0 50 78" fill="none" xmlns="http://www.w3.org/2000/svg">
<path d="M24.6167 0.060791C19.7697 0.0669009 15.0321 1.50964 10.9964 4.20856C6.96069 6.90748 3.80611 10.7428 1.9272 15.2347C0.0482937 19.7266 -0.471525 24.6758 0.432759 29.4632C1.33704 34.2506 3.62529 38.6637 7.01129 42.1505V74.3992C7.0131 75.0027 7.16832 75.5956 7.46221 76.1218C7.75609 76.6479 8.17888 77.0898 8.69043 77.4055C9.20198 77.7211 9.7853 77.9001 10.385 77.9253C10.9847 77.9506 11.5809 77.8213 12.1169 77.5498L24.6167 71.2841L37.1166 77.5498C37.6072 77.8025 38.1499 77.9358 38.7011 77.9392C39.3603 77.9413 40.0069 77.7573 40.5673 77.4082C41.0747 77.0893 41.4929 76.6457 41.7825 76.1193C42.0721 75.5928 42.2234 75.0008 42.2222 74.3992V42.1505C45.6082 38.6637 47.8964 34.2506 48.8007 29.4632C49.705 24.6758 49.1852 19.7266 47.3063 15.2347C45.4274 10.7428 42.2728 6.90748 38.2371 4.20856C34.2014 1.50964 29.4638 0.0669009 24.6167 0.060791ZM35.18 68.6646L26.2012 64.1688C25.7097 63.9199 25.1671 63.7902 24.6167 63.7902C24.0664 63.7902 23.5237 63.9199 23.0322 64.1688L14.0535 68.6646V47.2126C16.282 48.2706 18.6558 48.9865 21.0956 49.3366V53.1597C21.0956 54.0985 21.4666 54.9989 22.1269 55.6628C22.7873 56.3267 23.6829 56.6996 24.6167 56.6996C25.5506 56.6996 26.4462 56.3267 27.1065 55.6628C27.7668 54.9989 28.1378 54.0985 28.1378 53.1597V49.3366C30.5776 48.9865 32.9514 48.2706 35.18 47.2126V68.6646ZM24.6167 42.5399C21.1347 42.5399 17.7309 41.5018 14.8357 39.557C11.9405 37.6121 9.68394 34.8478 8.35142 31.6136C7.01891 28.3794 6.67026 24.8206 7.34957 21.3872C8.02888 17.9539 9.70564 14.8001 12.1678 12.3247C14.63 9.84941 17.767 8.16368 21.1821 7.48074C24.5972 6.79779 28.1371 7.1483 31.354 8.48795C34.571 9.82759 37.3206 12.0962 39.2551 15.0069C41.1896 17.9176 42.2222 21.3396 42.2222 24.8403C42.2222 29.5345 40.3673 34.0365 37.0657 37.3558C33.764 40.6751 29.286 42.5399 24.6167 42.5399Z" fill="white"/>
</svg>
