<svg width="55" height="61" viewBox="0 0 55 61" fill="none" xmlns="http://www.w3.org/2000/svg">
<path d="M29.9406 28.272C29.6137 27.995 29.2282 27.7778 28.8063 27.6329C27.9694 27.3286 27.0306 27.3286 26.1938 27.6329C25.7718 27.7778 25.3863 27.995 25.0594 28.272L18.1844 34.3586C17.5371 34.9316 17.1734 35.7089 17.1734 36.5193C17.1734 37.3297 17.5371 38.107 18.1844 38.68C18.8317 39.2531 19.7096 39.575 20.625 39.575C21.5404 39.575 22.4183 39.2531 23.0656 38.68L24.0625 37.7671V45.6491C24.0625 46.4563 24.4247 47.2303 25.0693 47.8011C25.714 48.3718 26.5883 48.6924 27.5 48.6924C28.4117 48.6924 29.286 48.3718 29.9307 47.8011C30.5753 47.2303 30.9375 46.4563 30.9375 45.6491V37.7671L31.9344 38.68C32.2539 38.9653 32.6341 39.1917 33.053 39.3462C33.4719 39.5007 33.9212 39.5802 34.375 39.5802C34.8288 39.5802 35.2781 39.5007 35.697 39.3462C36.1159 39.1917 36.4961 38.9653 36.8156 38.68C37.1378 38.3971 37.3935 38.0605 37.5681 37.6897C37.7426 37.3188 37.8324 36.9211 37.8324 36.5193C37.8324 36.1176 37.7426 35.7198 37.5681 35.3489C37.3935 34.9781 37.1378 34.6415 36.8156 34.3586L29.9406 28.272ZM55 21.1203C54.9642 20.8408 54.8951 20.5653 54.7938 20.2986V20.0248C54.6285 19.7118 54.408 19.4242 54.1406 19.1726L33.5156 0.912983C33.2315 0.676265 32.9066 0.481084 32.5531 0.33476H32.2094C31.8751 0.176519 31.5159 0.0636714 31.1438 0H10.3125C7.57746 0 4.95443 0.96189 3.02046 2.67406C1.08649 4.38624 0 6.70845 0 9.12983V51.7357C0 54.1571 1.08649 56.4793 3.02046 58.1915C4.95443 59.9036 7.57746 60.8655 10.3125 60.8655H44.6875C47.4225 60.8655 50.0456 59.9036 51.9795 58.1915C53.9135 56.4793 55 54.1571 55 51.7357V21.3029C55 21.3029 55 21.3029 55 21.1203ZM34.375 10.3776L43.2781 18.2597H37.8125C36.9008 18.2597 36.0265 17.939 35.3818 17.3683C34.7372 16.7976 34.375 16.0235 34.375 15.2164V10.3776ZM48.125 51.7357C48.125 52.5428 47.7628 53.3169 47.1182 53.8876C46.4735 54.4583 45.5992 54.779 44.6875 54.779H10.3125C9.40082 54.779 8.52648 54.4583 7.88182 53.8876C7.23717 53.3169 6.875 52.5428 6.875 51.7357V9.12983C6.875 8.3227 7.23717 7.54863 7.88182 6.97791C8.52648 6.40718 9.40082 6.08655 10.3125 6.08655H27.5V15.2164C27.5 17.6378 28.5865 19.96 30.5205 21.6721C32.4544 23.3843 35.0775 24.3462 37.8125 24.3462H48.125V51.7357Z" fill="white"/>
</svg>
